{
	"asset":{
		"generator":"Khronos glTF Blender I/O v4.2.57",
		"version":"2.0"
	},
	"extensionsUsed":[
		"KHR_materials_emissive_strength"
	],
	"scene":0,
	"scenes":[
		{
			"name":"Scene",
			"nodes":[
				6,
				7,
				8
			]
		}
	],
	"nodes":[
		{
			"mesh":0,
			"name":"Keyboard",
			"rotation":[
				0,
				-1,
				0,
				2.223057720129873e-07
			],
			"scale":[
				0.04157177358865738,
				0.033004384487867355,
				0.05870411545038223
			],
			"translation":[
				0.7150895595550537,
				0.04029914736747742,
				0.12681879103183746
			]
		},
		{
			"mesh":1,
			"name":"RTX Sticker",
			"scale":[
				0.07455507665872574,
				0.12620121240615845,
				0.12620121240615845
			],
			"translation":[
				-0.6821643114089966,
				0.05754402279853821,
				0.8583986759185791
			]
		},
		{
			"mesh":2,
			"name":"Ryzen Sticker",
			"scale":[
				0.07572684437036514,
				0.12818469107151031,
				0.12818469107151031
			],
			"translation":[
				-0.8601000905036926,
				0.05758756399154663,
				0.8597187995910645
			]
		},
		{
			"mesh":3,
			"name":"Hinge",
			"rotation":[
				0.7084890007972717,
				0,
				0,
				0.705721914768219
			],
			"scale":[
				0.9939978122711182,
				1,
				1
			],
			"translation":[
				0.002585982671007514,
				0.03521130979061127,
				-0.01712983474135399
			]
		},
		{
			"mesh":4,
			"name":"OLED Screen",
			"translation":[
				0.00036673317663371563,
				0.07221073657274246,
				1.0475977659225464
			]
		},
		{
			"children":[
				3,
				4
			],
			"mesh":5,
			"name":"Screen",
			"rotation":[
				-0.7260695099830627,
				0,
				0,
				0.6876212954521179
			],
			"translation":[
				-0.0025859526358544827,
				0.07691067457199097,
				-0.9401567578315735
			]
		},
		{
			"children":[
				0,
				1,
				2,
				5
			],
			"mesh":6,
			"name":"Body",
			"scale":[
				1.692724585533142,
				1,
				1
			],
			"translation":[
				0,
				0.3235451281070709,
				0
			]
		},
		{
			"mesh":7,
			"name":"Keycaps lable 3",
			"scale":[
				0.9072859883308411,
				0.9072859883308411,
				0.9072859883308411
			],
			"translation":[
				-0.004377305507659912,
				0.38604801893234253,
				-0.31491801142692566
			]
		},
		{
			"mesh":8,
			"name":"Plane",
			"rotation":[
				-0.0011525951558724046,
				0.6862123608589172,
				-0.7273942232131958,
				0.0029904921539127827
			],
			"scale":[
				1.5399998426437378,
				1.2599999904632568,
				0.8999999761581421
			],
			"translation":[
				0.014437943696975708,
				1.3842769861221313,
				-1.1110392808914185
			]
		}
	],
	"materials":[
		{
			"doubleSided":true,
			"name":"Keycaps",
			"pbrMetallicRoughness":{
				"baseColorFactor":[
					0,
					0,
					0,
					1
				],
				"metallicFactor":0,
				"roughnessFactor":0.4000000059604645
			}
		},
		{
			"doubleSided":true,
			"emissiveFactor":[
				1,
				0,
				0.0038402099162340164
			],
			"name":"Glow",
			"pbrMetallicRoughness":{
				"baseColorFactor":[
					0,
					0,
					0,
					1
				]
			}
		},
		{
			"alphaMode":"BLEND",
			"doubleSided":true,
			"name":"RTX Sticker",
			"pbrMetallicRoughness":{
				"baseColorTexture":{
					"index":0
				},
				"metallicFactor":0,
				"roughnessFactor":0.10000000149011612
			}
		},
		{
			"alphaMode":"BLEND",
			"doubleSided":true,
			"name":"Ryzen Sticker",
			"pbrMetallicRoughness":{
				"baseColorTexture":{
					"index":1
				},
				"metallicFactor":0,
				"roughnessFactor":0.10000000149011612
			}
		},
		{
			"doubleSided":true,
			"name":"Body",
			"pbrMetallicRoughness":{
				"baseColorFactor":[
					0.5382252335548401,
					0.5382252335548401,
					0.5382252335548401,
					1
				],
				"roughnessFactor":0.4000000059604645
			}
		},
		{
			"doubleSided":true,
			"emissiveFactor":[
				1,
				1,
				1
			],
			"emissiveTexture":{
				"index":2
			},
			"extensions":{
				"KHR_materials_emissive_strength":{
					"emissiveStrength":2.5
				}
			},
			"name":"Display",
			"pbrMetallicRoughness":{
				"baseColorFactor":[
					0,
					0,
					0,
					1
				]
			}
		},
		{
			"doubleSided":true,
			"name":"Matte Black",
			"pbrMetallicRoughness":{
				"baseColorFactor":[
					0.004241883289068937,
					0.004241883289068937,
					0.004241883289068937,
					1
				],
				"metallicFactor":0,
				"roughnessFactor":0.5
			}
		},
		{
			"doubleSided":true,
			"name":"Material.001",
			"pbrMetallicRoughness":{
				"baseColorTexture":{
					"index":3
				},
				"metallicFactor":0,
				"roughnessFactor":0.5
			}
		},
		{
			"alphaMode":"BLEND",
			"doubleSided":true,
			"name":"Keycaps lable 3",
			"pbrMetallicRoughness":{
				"baseColorTexture":{
					"index":4
				},
				"metallicFactor":0,
				"roughnessFactor":0.5
			}
		},
		{
			"doubleSided":true,
			"name":"Material",
			"pbrMetallicRoughness":{
				"baseColorTexture":{
					"index":5
				},
				"metallicFactor":0,
				"roughnessFactor":0.5
			}
		}
	],
	"meshes":[
		{
			"name":"Plane.012",
			"primitives":[
				{
					"attributes":{
						"POSITION":0,
						"NORMAL":1,
						"TEXCOORD_0":2
					},
					"indices":3,
					"material":0
				},
				{
					"attributes":{
						"POSITION":4,
						"NORMAL":5,
						"TEXCOORD_0":6
					},
					"indices":7,
					"material":1
				}
			]
		},
		{
			"name":"RTX Sticker",
			"primitives":[
				{
					"attributes":{
						"POSITION":8,
						"NORMAL":9,
						"TEXCOORD_0":10
					},
					"indices":11,
					"material":2
				}
			]
		},
		{
			"name":"Ryzen Sticker",
			"primitives":[
				{
					"attributes":{
						"POSITION":12,
						"NORMAL":13,
						"TEXCOORD_0":14
					},
					"indices":11,
					"material":3
				}
			]
		},
		{
			"name":"Plane.006",
			"primitives":[
				{
					"attributes":{
						"POSITION":15,
						"NORMAL":16,
						"TEXCOORD_0":17
					},
					"indices":18,
					"material":0
				},
				{
					"attributes":{
						"POSITION":19,
						"NORMAL":20,
						"TEXCOORD_0":21
					},
					"indices":22,
					"material":4
				}
			]
		},
		{
			"name":"Plane.004",
			"primitives":[
				{
					"attributes":{
						"POSITION":23,
						"NORMAL":24,
						"TEXCOORD_0":25
					},
					"indices":26,
					"material":0
				},
				{
					"attributes":{
						"POSITION":27,
						"NORMAL":28,
						"TEXCOORD_0":29
					},
					"indices":30,
					"material":5
				}
			]
		},
		{
			"name":"Plane.003",
			"primitives":[
				{
					"attributes":{
						"POSITION":31,
						"NORMAL":32,
						"TEXCOORD_0":33
					},
					"indices":34,
					"material":6
				}
			]
		},
		{
			"name":"Plane",
			"primitives":[
				{
					"attributes":{
						"POSITION":35,
						"NORMAL":36,
						"TEXCOORD_0":37
					},
					"indices":38,
					"material":4
				},
				{
					"attributes":{
						"POSITION":39,
						"NORMAL":40,
						"TEXCOORD_0":41
					},
					"indices":42,
					"material":7
				},
				{
					"attributes":{
						"POSITION":43,
						"NORMAL":44,
						"TEXCOORD_0":45
					},
					"indices":46,
					"material":6
				}
			]
		},
		{
			"name":"Keycaps lable 3",
			"primitives":[
				{
					"attributes":{
						"POSITION":47,
						"NORMAL":48,
						"TEXCOORD_0":49
					},
					"indices":11,
					"material":8
				}
			]
		},
		{
			"name":"Plane.001",
			"primitives":[
				{
					"attributes":{
						"POSITION":50,
						"NORMAL":51,
						"TEXCOORD_0":52
					},
					"indices":11,
					"material":9
				}
			]
		}
	],
	"textures":[
		{
			"sampler":0,
			"source":0
		},
		{
			"sampler":0,
			"source":1
		},
		{
			"sampler":1,
			"source":2
		},
		{
			"sampler":1,
			"source":3
		},
		{
			"sampler":0,
			"source":4
		},
		{
			"sampler":1,
			"source":5
		}
	],
	"images":[
		{
			"bufferView":12,
			"mimeType":"image/png",
			"name":"RTX Sticker"
		},
		{
			"bufferView":16,
			"mimeType":"image/png",
			"name":"Ryzen Sticker"
		},
		{
			"bufferView":33,
			"mimeType":"image/png",
			"name":"laptopimg"
		},
		{
			"bufferView":46,
			"mimeType":"image/jpeg",
			"name":"Lowpoly_Laptop_2"
		},
		{
			"bufferView":54,
			"mimeType":"image/png",
			"name":"Keycaps lable 3"
		},
		{
			"bufferView":58,
			"mimeType":"image/jpeg",
			"name":"webdevsticker"
		}
	],
	"accessors":[
		{
			"bufferView":0,
			"componentType":5126,
			"count":2960,
			"max":[
				35.58440399169922,
				0.42211419343948364,
				15.271625518798828
			],
			"min":[
				-1.0009486675262451,
				-0.4112522602081299,
				-0.2127816081047058
			],
			"type":"VEC3"
		},
		{
			"bufferView":1,
			"componentType":5126,
			"count":2960,
			"type":"VEC3"
		},
		{
			"bufferView":2,
			"componentType":5126,
			"count":2960,
			"type":"VEC2"
		},
		{
			"bufferView":3,
			"componentType":5123,
			"count":8220,
			"type":"SCALAR"
		},
		{
			"bufferView":4,
			"componentType":5126,
			"count":10384,
			"max":[
				35.58440399169922,
				0.42211419343948364,
				15.271625518798828
			],
			"min":[
				-1.0009486675262451,
				-0.4112522602081299,
				-0.2127816081047058
			],
			"type":"VEC3"
		},
		{
			"bufferView":5,
			"componentType":5126,
			"count":10384,
			"type":"VEC3"
		},
		{
			"bufferView":6,
			"componentType":5126,
			"count":10384,
			"type":"VEC2"
		},
		{
			"bufferView":7,
			"componentType":5123,
			"count":17484,
			"type":"SCALAR"
		},
		{
			"bufferView":8,
			"componentType":5126,
			"count":4,
			"max":[
				1.5829694271087646,
				0,
				0.5
			],
			"min":[
				-1.5829694271087646,
				0,
				-0.5
			],
			"type":"VEC3"
		},
		{
			"bufferView":9,
			"componentType":5126,
			"count":4,
			"type":"VEC3"
		},
		{
			"bufferView":10,
			"componentType":5126,
			"count":4,
			"type":"VEC2"
		},
		{
			"bufferView":11,
			"componentType":5123,
			"count":6,
			"type":"SCALAR"
		},
		{
			"bufferView":13,
			"componentType":5126,
			"count":4,
			"max":[
				0.562367856502533,
				0,
				0.5
			],
			"min":[
				-0.562367856502533,
				0,
				-0.5
			],
			"type":"VEC3"
		},
		{
			"bufferView":14,
			"componentType":5126,
			"count":4,
			"type":"VEC3"
		},
		{
			"bufferView":15,
			"componentType":5126,
			"count":4,
			"type":"VEC2"
		},
		{
			"bufferView":17,
			"componentType":5126,
			"count":10,
			"max":[
				0.6693059206008911,
				0.034192249178886414,
				0.04392830282449722
			],
			"min":[
				-0.6693059206008911,
				-0.04087762162089348,
				-0.04263784736394882
			],
			"type":"VEC3"
		},
		{
			"bufferView":18,
			"componentType":5126,
			"count":10,
			"type":"VEC3"
		},
		{
			"bufferView":19,
			"componentType":5126,
			"count":10,
			"type":"VEC2"
		},
		{
			"bufferView":20,
			"componentType":5123,
			"count":36,
			"type":"SCALAR"
		},
		{
			"bufferView":21,
			"componentType":5126,
			"count":6,
			"max":[
				0.6693059206008911,
				0.034192249178886414,
				0.04392830282449722
			],
			"min":[
				-0.6693059206008911,
				-0.04087762162089348,
				-0.04263784736394882
			],
			"type":"VEC3"
		},
		{
			"bufferView":22,
			"componentType":5126,
			"count":6,
			"type":"VEC3"
		},
		{
			"bufferView":23,
			"componentType":5126,
			"count":6,
			"type":"VEC2"
		},
		{
			"bufferView":24,
			"componentType":5123,
			"count":12,
			"type":"SCALAR"
		},
		{
			"bufferView":25,
			"componentType":5126,
			"count":54,
			"max":[
				0.971394419670105,
				0.0060895998030900955,
				0.8668627738952637
			],
			"min":[
				-0.9676131010055542,
				-0.00485333614051342,
				-1.0299885272979736
			],
			"type":"VEC3"
		},
		{
			"bufferView":26,
			"componentType":5126,
			"count":54,
			"type":"VEC3"
		},
		{
			"bufferView":27,
			"componentType":5126,
			"count":54,
			"type":"VEC2"
		},
		{
			"bufferView":28,
			"componentType":5123,
			"count":306,
			"type":"SCALAR"
		},
		{
			"bufferView":29,
			"componentType":5126,
			"count":4,
			"max":[
				0.9315909743309021,
				0.0012602322967723012,
				0.7405368089675903
			],
			"min":[
				-0.9278097152709961,
				0.0008067413000389934,
				-0.7668484449386597
			],
			"type":"VEC3"
		},
		{
			"bufferView":30,
			"componentType":5126,
			"count":4,
			"type":"VEC3"
		},
		{
			"bufferView":31,
			"componentType":5126,
			"count":4,
			"type":"VEC2"
		},
		{
			"bufferView":32,
			"componentType":5123,
			"count":6,
			"type":"SCALAR"
		},
		{
			"bufferView":34,
			"componentType":5126,
			"count":72,
			"max":[
				0.9778933525085449,
				0.1107487678527832,
				1.923344612121582
			],
			"min":[
				-0.9727214574813843,
				0.07775068283081055,
				-0.07112590968608856
			],
			"type":"VEC3"
		},
		{
			"bufferView":35,
			"componentType":5126,
			"count":72,
			"type":"VEC3"
		},
		{
			"bufferView":36,
			"componentType":5126,
			"count":72,
			"type":"VEC2"
		},
		{
			"bufferView":37,
			"componentType":5123,
			"count":420,
			"type":"SCALAR"
		},
		{
			"bufferView":38,
			"componentType":5126,
			"count":7170,
			"max":[
				0.9784064888954163,
				0.05168881267309189,
				-0.05144614726305008
			],
			"min":[
				-0.9784067273139954,
				0.007613569498062134,
				-0.7706179618835449
			],
			"type":"VEC3"
		},
		{
			"bufferView":39,
			"componentType":5126,
			"count":7170,
			"type":"VEC3"
		},
		{
			"bufferView":40,
			"componentType":5126,
			"count":7170,
			"type":"VEC2"
		},
		{
			"bufferView":41,
			"componentType":5123,
			"count":36696,
			"type":"SCALAR"
		},
		{
			"bufferView":42,
			"componentType":5126,
			"count":26,
			"max":[
				0.8691142201423645,
				-0.07035782933235168,
				0.8893678784370422
			],
			"min":[
				-0.8694254755973816,
				-0.07035785913467407,
				-0.8886654376983643
			],
			"type":"VEC3"
		},
		{
			"bufferView":43,
			"componentType":5126,
			"count":26,
			"type":"VEC3"
		},
		{
			"bufferView":44,
			"componentType":5126,
			"count":26,
			"type":"VEC2"
		},
		{
			"bufferView":45,
			"componentType":5123,
			"count":72,
			"type":"SCALAR"
		},
		{
			"bufferView":47,
			"componentType":5126,
			"count":1057,
			"max":[
				0.9784064888954163,
				0.06029146909713745,
				1
			],
			"min":[
				-0.9784067273139954,
				-0.07035785913467407,
				-1.0097441673278809
			],
			"type":"VEC3"
		},
		{
			"bufferView":48,
			"componentType":5126,
			"count":1057,
			"type":"VEC3"
		},
		{
			"bufferView":49,
			"componentType":5126,
			"count":1057,
			"type":"VEC2"
		},
		{
			"bufferView":50,
			"componentType":5123,
			"count":4167,
			"type":"SCALAR"
		},
		{
			"bufferView":51,
			"componentType":5126,
			"count":4,
			"max":[
				1.416050672531128,
				0,
				0.5
			],
			"min":[
				-1.416050672531128,
				0,
				-0.5
			],
			"type":"VEC3"
		},
		{
			"bufferView":52,
			"componentType":5126,
			"count":4,
			"type":"VEC3"
		},
		{
			"bufferView":53,
			"componentType":5126,
			"count":4,
			"type":"VEC2"
		},
		{
			"bufferView":55,
			"componentType":5126,
			"count":4,
			"max":[
				1,
				0,
				1
			],
			"min":[
				-1,
				0,
				-1
			],
			"type":"VEC3"
		},
		{
			"bufferView":56,
			"componentType":5126,
			"count":4,
			"type":"VEC3"
		},
		{
			"bufferView":57,
			"componentType":5126,
			"count":4,
			"type":"VEC2"
		}
	],
	"bufferViews":[
		{
			"buffer":0,
			"byteLength":35520,
			"byteOffset":0,
			"target":34962
		},
		{
			"buffer":0,
			"byteLength":35520,
			"byteOffset":35520,
			"target":34962
		},
		{
			"buffer":0,
			"byteLength":23680,
			"byteOffset":71040,
			"target":34962
		},
		{
			"buffer":0,
			"byteLength":16440,
			"byteOffset":94720,
			"target":34963
		},
		{
			"buffer":0,
			"byteLength":124608,
			"byteOffset":111160,
			"target":34962
		},
		{
			"buffer":0,
			"byteLength":124608,
			"byteOffset":235768,
			"target":34962
		},
		{
			"buffer":0,
			"byteLength":83072,
			"byteOffset":360376,
			"target":34962
		},
		{
			"buffer":0,
			"byteLength":34968,
			"byteOffset":443448,
			"target":34963
		},
		{
			"buffer":0,
			"byteLength":48,
			"byteOffset":478416,
			"target":34962
		},
		{
			"buffer":0,
			"byteLength":48,
			"byteOffset":478464,
			"target":34962
		},
		{
			"buffer":0,
			"byteLength":32,
			"byteOffset":478512,
			"target":34962
		},
		{
			"buffer":0,
			"byteLength":12,
			"byteOffset":478544,
			"target":34963
		},
		{
			"buffer":0,
			"byteLength":584689,
			"byteOffset":478556
		},
		{
			"buffer":0,
			"byteLength":48,
			"byteOffset":1063248,
			"target":34962
		},
		{
			"buffer":0,
			"byteLength":48,
			"byteOffset":1063296,
			"target":34962
		},
		{
			"buffer":0,
			"byteLength":32,
			"byteOffset":1063344,
			"target":34962
		},
		{
			"buffer":0,
			"byteLength":226091,
			"byteOffset":1063376
		},
		{
			"buffer":0,
			"byteLength":120,
			"byteOffset":1289468,
			"target":34962
		},
		{
			"buffer":0,
			"byteLength":120,
			"byteOffset":1289588,
			"target":34962
		},
		{
			"buffer":0,
			"byteLength":80,
			"byteOffset":1289708,
			"target":34962
		},
		{
			"buffer":0,
			"byteLength":72,
			"byteOffset":1289788,
			"target":34963
		},
		{
			"buffer":0,
			"byteLength":72,
			"byteOffset":1289860,
			"target":34962
		},
		{
			"buffer":0,
			"byteLength":72,
			"byteOffset":1289932,
			"target":34962
		},
		{
			"buffer":0,
			"byteLength":48,
			"byteOffset":1290004,
			"target":34962
		},
		{
			"buffer":0,
			"byteLength":24,
			"byteOffset":1290052,
			"target":34963
		},
		{
			"buffer":0,
			"byteLength":648,
			"byteOffset":1290076,
			"target":34962
		},
		{
			"buffer":0,
			"byteLength":648,
			"byteOffset":1290724,
			"target":34962
		},
		{
			"buffer":0,
			"byteLength":432,
			"byteOffset":1291372,
			"target":34962
		},
		{
			"buffer":0,
			"byteLength":612,
			"byteOffset":1291804,
			"target":34963
		},
		{
			"buffer":0,
			"byteLength":48,
			"byteOffset":1292416,
			"target":34962
		},
		{
			"buffer":0,
			"byteLength":48,
			"byteOffset":1292464,
			"target":34962
		},
		{
			"buffer":0,
			"byteLength":32,
			"byteOffset":1292512,
			"target":34962
		},
		{
			"buffer":0,
			"byteLength":12,
			"byteOffset":1292544,
			"target":34963
		},
		{
			"buffer":0,
			"byteLength":121001,
			"byteOffset":1292556
		},
		{
			"buffer":0,
			"byteLength":864,
			"byteOffset":1413560,
			"target":34962
		},
		{
			"buffer":0,
			"byteLength":864,
			"byteOffset":1414424,
			"target":34962
		},
		{
			"buffer":0,
			"byteLength":576,
			"byteOffset":1415288,
			"target":34962
		},
		{
			"buffer":0,
			"byteLength":840,
			"byteOffset":1415864,
			"target":34963
		},
		{
			"buffer":0,
			"byteLength":86040,
			"byteOffset":1416704,
			"target":34962
		},
		{
			"buffer":0,
			"byteLength":86040,
			"byteOffset":1502744,
			"target":34962
		},
		{
			"buffer":0,
			"byteLength":57360,
			"byteOffset":1588784,
			"target":34962
		},
		{
			"buffer":0,
			"byteLength":73392,
			"byteOffset":1646144,
			"target":34963
		},
		{
			"buffer":0,
			"byteLength":312,
			"byteOffset":1719536,
			"target":34962
		},
		{
			"buffer":0,
			"byteLength":312,
			"byteOffset":1719848,
			"target":34962
		},
		{
			"buffer":0,
			"byteLength":208,
			"byteOffset":1720160,
			"target":34962
		},
		{
			"buffer":0,
			"byteLength":144,
			"byteOffset":1720368,
			"target":34963
		},
		{
			"buffer":0,
			"byteLength":758037,
			"byteOffset":1720512
		},
		{
			"buffer":0,
			"byteLength":12684,
			"byteOffset":2478552,
			"target":34962
		},
		{
			"buffer":0,
			"byteLength":12684,
			"byteOffset":2491236,
			"target":34962
		},
		{
			"buffer":0,
			"byteLength":8456,
			"byteOffset":2503920,
			"target":34962
		},
		{
			"buffer":0,
			"byteLength":8334,
			"byteOffset":2512376,
			"target":34963
		},
		{
			"buffer":0,
			"byteLength":48,
			"byteOffset":2520712,
			"target":34962
		},
		{
			"buffer":0,
			"byteLength":48,
			"byteOffset":2520760,
			"target":34962
		},
		{
			"buffer":0,
			"byteLength":32,
			"byteOffset":2520808,
			"target":34962
		},
		{
			"buffer":0,
			"byteLength":212103,
			"byteOffset":2520840
		},
		{
			"buffer":0,
			"byteLength":48,
			"byteOffset":2732944,
			"target":34962
		},
		{
			"buffer":0,
			"byteLength":48,
			"byteOffset":2732992,
			"target":34962
		},
		{
			"buffer":0,
			"byteLength":32,
			"byteOffset":2733040,
			"target":34962
		},
		{
			"buffer":0,
			"byteLength":239292,
			"byteOffset":2733072
		}
	],
	"samplers":[
		{
			"magFilter":9729,
			"minFilter":9987,
			"wrapS":33071,
			"wrapT":33071
		},
		{
			"magFilter":9729,
			"minFilter":9987
		}
	],
	"buffers":[
		{
			"byteLength":2972364,
			"uri":"data:application/octet-stream;base64,"
		}
	]
}
